<?xml version="1.0" encoding="utf-8" standalone="no"?>
<!DOCTYPE svg PUBLIC "-//W3C//DTD SVG 1.1//EN"
  "http://www.w3.org/Graphics/SVG/1.1/DTD/svg11.dtd">
<!-- Created with matplotlib (http://matplotlib.org/) -->
<svg height="345.6pt" version="1.1" viewBox="0 0 460.8 345.6" width="460.8pt" xmlns="http://www.w3.org/2000/svg" xmlns:xlink="http://www.w3.org/1999/xlink">
 <defs>
  <style type="text/css">
*{stroke-linecap:butt;stroke-linejoin:round;}
  </style>
 </defs>
 <g id="figure_1">
  <g id="patch_1">
   <path d="M 0 345.6 
L 460.8 345.6 
L 460.8 0 
L 0 0 
z
" style="fill:#ffffff;"/>
  </g>
  <g id="axes_1">
   <g id="patch_2">
    <path d="M 57.6 307.584 
L 414.72 307.584 
L 414.72 41.472 
L 57.6 41.472 
z
" style="fill:#ffffff;"/>
   </g>
   <g id="matplotlib.axis_1">
    <g id="text_1">
     <!-- time -->
     <defs>
      <path d="M 18.3125 70.21875 
L 18.3125 54.6875 
L 36.8125 54.6875 
L 36.8125 47.703125 
L 18.3125 47.703125 
L 18.3125 18.015625 
Q 18.3125 11.328125 20.140625 9.421875 
Q 21.96875 7.515625 27.59375 7.515625 
L 36.8125 7.515625 
L 36.8125 0 
L 27.59375 0 
Q 17.1875 0 13.234375 3.875 
Q 9.28125 7.765625 9.28125 18.015625 
L 9.28125 47.703125 
L 2.6875 47.703125 
L 2.6875 54.6875 
L 9.28125 54.6875 
L 9.28125 70.21875 
z
" id="DejaVuSans-74"/>
      <path d="M 9.421875 54.6875 
L 18.40625 54.6875 
L 18.40625 0 
L 9.421875 0 
z
M 9.421875 75.984375 
L 18.40625 75.984375 
L 18.40625 64.59375 
L 9.421875 64.59375 
z
" id="DejaVuSans-69"/>
      <path d="M 52 44.1875 
Q 55.375 50.25 60.0625 53.125 
Q 64.75 56 71.09375 56 
Q 79.640625 56 84.28125 50.015625 
Q 88.921875 44.046875 88.921875 33.015625 
L 88.921875 0 
L 79.890625 0 
L 79.890625 32.71875 
Q 79.890625 40.578125 77.09375 44.375 
Q 74.3125 48.1875 68.609375 48.1875 
Q 61.625 48.1875 57.5625 43.546875 
Q 53.515625 38.921875 53.515625 30.90625 
L 53.515625 0 
L 44.484375 0 
L 44.484375 32.71875 
Q 44.484375 40.625 41.703125 44.40625 
Q 38.921875 48.1875 33.109375 48.1875 
Q 26.21875 48.1875 22.15625 43.53125 
Q 18.109375 38.875 18.109375 30.90625 
L 18.109375 0 
L 9.078125 0 
L 9.078125 54.6875 
L 18.109375 54.6875 
L 18.109375 46.1875 
Q 21.1875 51.21875 25.484375 53.609375 
Q 29.78125 56 35.6875 56 
Q 41.65625 56 45.828125 52.96875 
Q 50 49.953125 52 44.1875 
z
" id="DejaVuSans-6d"/>
      <path d="M 56.203125 29.59375 
L 56.203125 25.203125 
L 14.890625 25.203125 
Q 15.484375 15.921875 20.484375 11.0625 
Q 25.484375 6.203125 34.421875 6.203125 
Q 39.59375 6.203125 44.453125 7.46875 
Q 49.3125 8.734375 54.109375 11.28125 
L 54.109375 2.78125 
Q 49.265625 0.734375 44.1875 -0.34375 
Q 39.109375 -1.421875 33.890625 -1.421875 
Q 20.796875 -1.421875 13.15625 6.1875 
Q 5.515625 13.8125 5.515625 26.8125 
Q 5.515625 40.234375 12.765625 48.109375 
Q 20.015625 56 32.328125 56 
Q 43.359375 56 49.78125 48.890625 
Q 56.203125 41.796875 56.203125 29.59375 
z
M 47.21875 32.234375 
Q 47.125 39.59375 43.09375 43.984375 
Q 39.0625 48.390625 32.421875 48.390625 
Q 24.90625 48.390625 20.390625 44.140625 
Q 15.875 39.890625 15.1875 32.171875 
z
" id="DejaVuSans-65"/>
     </defs>
     <g transform="translate(224.863906 319.182437)scale(0.1 -0.1)">
      <use xlink:href="#DejaVuSans-74"/>
      <use x="39.208984" xlink:href="#DejaVuSans-69"/>
      <use x="66.992188" xlink:href="#DejaVuSans-6d"/>
      <use x="164.404297" xlink:href="#DejaVuSans-65"/>
     </g>
    </g>
   </g>
   <g id="matplotlib.axis_2"/>
   <g id="patch_3">
    <path d="M 57.6 307.584 
L 57.6 41.472 
" style="fill:none;stroke:#000000;stroke-linecap:square;stroke-linejoin:miter;stroke-width:0.8;"/>
   </g>
   <g id="patch_4">
    <path d="M 414.72 307.584 
L 414.72 41.472 
" style="fill:none;stroke:#000000;stroke-linecap:square;stroke-linejoin:miter;stroke-width:0.8;"/>
   </g>
   <g id="patch_5">
    <path d="M 57.6 307.584 
L 414.72 307.584 
" style="fill:none;stroke:#000000;stroke-linecap:square;stroke-linejoin:miter;stroke-width:0.8;"/>
   </g>
   <g id="patch_6">
    <path d="M 57.6 41.472 
L 414.72 41.472 
" style="fill:none;stroke:#000000;stroke-linecap:square;stroke-linejoin:miter;stroke-width:0.8;"/>
   </g>
   <g id="text_2">
    <!-- ITI = 50.0 ms, df = 3 -->
    <defs>
     <path d="M 9.8125 72.90625 
L 19.671875 72.90625 
L 19.671875 0 
L 9.8125 0 
z
" id="DejaVuSans-49"/>
     <path d="M -0.296875 72.90625 
L 61.375 72.90625 
L 61.375 64.59375 
L 35.5 64.59375 
L 35.5 0 
L 25.59375 0 
L 25.59375 64.59375 
L -0.296875 64.59375 
z
" id="DejaVuSans-54"/>
     <path id="DejaVuSans-20"/>
     <path d="M 10.59375 45.40625 
L 73.1875 45.40625 
L 73.1875 37.203125 
L 10.59375 37.203125 
z
M 10.59375 25.484375 
L 73.1875 25.484375 
L 73.1875 17.1875 
L 10.59375 17.1875 
z
" id="DejaVuSans-3d"/>
     <path d="M 10.796875 72.90625 
L 49.515625 72.90625 
L 49.515625 64.59375 
L 19.828125 64.59375 
L 19.828125 46.734375 
Q 21.96875 47.46875 24.109375 47.828125 
Q 26.265625 48.1875 28.421875 48.1875 
Q 40.625 48.1875 47.75 41.5 
Q 54.890625 34.8125 54.890625 23.390625 
Q 54.890625 11.625 47.5625 5.09375 
Q 40.234375 -1.421875 26.90625 -1.421875 
Q 22.3125 -1.421875 17.546875 -0.640625 
Q 12.796875 0.140625 7.71875 1.703125 
L 7.71875 11.625 
Q 12.109375 9.234375 16.796875 8.0625 
Q 21.484375 6.890625 26.703125 6.890625 
Q 35.15625 6.890625 40.078125 11.328125 
Q 45.015625 15.765625 45.015625 23.390625 
Q 45.015625 31 40.078125 35.4375 
Q 35.15625 39.890625 26.703125 39.890625 
Q 22.75 39.890625 18.8125 39.015625 
Q 14.890625 38.140625 10.796875 36.28125 
z
" id="DejaVuSans-35"/>
     <path d="M 31.78125 66.40625 
Q 24.171875 66.40625 20.328125 58.90625 
Q 16.5 51.421875 16.5 36.375 
Q 16.5 21.390625 20.328125 13.890625 
Q 24.171875 6.390625 31.78125 6.390625 
Q 39.453125 6.390625 43.28125 13.890625 
Q 47.125 21.390625 47.125 36.375 
Q 47.125 51.421875 43.28125 58.90625 
Q 39.453125 66.40625 31.78125 66.40625 
z
M 31.78125 74.21875 
Q 44.046875 74.21875 50.515625 64.515625 
Q 56.984375 54.828125 56.984375 36.375 
Q 56.984375 17.96875 50.515625 8.265625 
Q 44.046875 -1.421875 31.78125 -1.421875 
Q 19.53125 -1.421875 13.0625 8.265625 
Q 6.59375 17.96875 6.59375 36.375 
Q 6.59375 54.828125 13.0625 64.515625 
Q 19.53125 74.21875 31.78125 74.21875 
z
" id="DejaVuSans-30"/>
     <path d="M 10.6875 12.40625 
L 21 12.40625 
L 21 0 
L 10.6875 0 
z
" id="DejaVuSans-2e"/>
     <path d="M 44.28125 53.078125 
L 44.28125 44.578125 
Q 40.484375 46.53125 36.375 47.5 
Q 32.28125 48.484375 27.875 48.484375 
Q 21.1875 48.484375 17.84375 46.4375 
Q 14.5 44.390625 14.5 40.28125 
Q 14.5 37.15625 16.890625 35.375 
Q 19.28125 33.59375 26.515625 31.984375 
L 29.59375 31.296875 
Q 39.15625 29.25 43.1875 25.515625 
Q 47.21875 21.78125 47.21875 15.09375 
Q 47.21875 7.46875 41.1875 3.015625 
Q 35.15625 -1.421875 24.609375 -1.421875 
Q 20.21875 -1.421875 15.453125 -0.5625 
Q 10.6875 0.296875 5.421875 2 
L 5.421875 11.28125 
Q 10.40625 8.6875 15.234375 7.390625 
Q 20.0625 6.109375 24.8125 6.109375 
Q 31.15625 6.109375 34.5625 8.28125 
Q 37.984375 10.453125 37.984375 14.40625 
Q 37.984375 18.0625 35.515625 20.015625 
Q 33.0625 21.96875 24.703125 23.78125 
L 21.578125 24.515625 
Q 13.234375 26.265625 9.515625 29.90625 
Q 5.8125 33.546875 5.8125 39.890625 
Q 5.8125 47.609375 11.28125 51.796875 
Q 16.75 56 26.8125 56 
Q 31.78125 56 36.171875 55.265625 
Q 40.578125 54.546875 44.28125 53.078125 
z
" id="DejaVuSans-73"/>
     <path d="M 11.71875 12.40625 
L 22.015625 12.40625 
L 22.015625 4 
L 14.015625 -11.625 
L 7.71875 -11.625 
L 11.71875 4 
z
" id="DejaVuSans-2c"/>
     <path d="M 45.40625 46.390625 
L 45.40625 75.984375 
L 54.390625 75.984375 
L 54.390625 0 
L 45.40625 0 
L 45.40625 8.203125 
Q 42.578125 3.328125 38.25 0.953125 
Q 33.9375 -1.421875 27.875 -1.421875 
Q 17.96875 -1.421875 11.734375 6.484375 
Q 5.515625 14.40625 5.515625 27.296875 
Q 5.515625 40.1875 11.734375 48.09375 
Q 17.96875 56 27.875 56 
Q 33.9375 56 38.25 53.625 
Q 42.578125 51.265625 45.40625 46.390625 
z
M 14.796875 27.296875 
Q 14.796875 17.390625 18.875 11.75 
Q 22.953125 6.109375 30.078125 6.109375 
Q 37.203125 6.109375 41.296875 11.75 
Q 45.40625 17.390625 45.40625 27.296875 
Q 45.40625 37.203125 41.296875 42.84375 
Q 37.203125 48.484375 30.078125 48.484375 
Q 22.953125 48.484375 18.875 42.84375 
Q 14.796875 37.203125 14.796875 27.296875 
z
" id="DejaVuSans-64"/>
     <path d="M 37.109375 75.984375 
L 37.109375 68.5 
L 28.515625 68.5 
Q 23.6875 68.5 21.796875 66.546875 
Q 19.921875 64.59375 19.921875 59.515625 
L 19.921875 54.6875 
L 34.71875 54.6875 
L 34.71875 47.703125 
L 19.921875 47.703125 
L 19.921875 0 
L 10.890625 0 
L 10.890625 47.703125 
L 2.296875 47.703125 
L 2.296875 54.6875 
L 10.890625 54.6875 
L 10.890625 58.5 
Q 10.890625 67.625 15.140625 71.796875 
Q 19.390625 75.984375 28.609375 75.984375 
z
" id="DejaVuSans-66"/>
     <path d="M 40.578125 39.3125 
Q 47.65625 37.796875 51.625 33 
Q 55.609375 28.21875 55.609375 21.1875 
Q 55.609375 10.40625 48.1875 4.484375 
Q 40.765625 -1.421875 27.09375 -1.421875 
Q 22.515625 -1.421875 17.65625 -0.515625 
Q 12.796875 0.390625 7.625 2.203125 
L 7.625 11.71875 
Q 11.71875 9.328125 16.59375 8.109375 
Q 21.484375 6.890625 26.8125 6.890625 
Q 36.078125 6.890625 40.9375 10.546875 
Q 45.796875 14.203125 45.796875 21.1875 
Q 45.796875 27.640625 41.28125 31.265625 
Q 36.765625 34.90625 28.71875 34.90625 
L 20.21875 34.90625 
L 20.21875 43.015625 
L 29.109375 43.015625 
Q 36.375 43.015625 40.234375 45.921875 
Q 44.09375 48.828125 44.09375 54.296875 
Q 44.09375 59.90625 40.109375 62.90625 
Q 36.140625 65.921875 28.71875 65.921875 
Q 24.65625 65.921875 20.015625 65.03125 
Q 15.375 64.15625 9.8125 62.3125 
L 9.8125 71.09375 
Q 15.4375 72.65625 20.34375 73.4375 
Q 25.25 74.21875 29.59375 74.21875 
Q 40.828125 74.21875 47.359375 69.109375 
Q 53.90625 64.015625 53.90625 55.328125 
Q 53.90625 49.265625 50.4375 45.09375 
Q 46.96875 40.921875 40.578125 39.3125 
z
" id="DejaVuSans-33"/>
    </defs>
    <g transform="translate(173.483438 35.472)scale(0.12 -0.12)">
     <use xlink:href="#DejaVuSans-49"/>
     <use x="29.492188" xlink:href="#DejaVuSans-54"/>
     <use x="90.576172" xlink:href="#DejaVuSans-49"/>
     <use x="120.068359" xlink:href="#DejaVuSans-20"/>
     <use x="151.855469" xlink:href="#DejaVuSans-3d"/>
     <use x="235.644531" xlink:href="#DejaVuSans-20"/>
     <use x="267.431641" xlink:href="#DejaVuSans-35"/>
     <use x="331.054688" xlink:href="#DejaVuSans-30"/>
     <use x="394.677734" xlink:href="#DejaVuSans-2e"/>
     <use x="426.464844" xlink:href="#DejaVuSans-30"/>
     <use x="490.087891" xlink:href="#DejaVuSans-20"/>
     <use x="521.875" xlink:href="#DejaVuSans-6d"/>
     <use x="619.287109" xlink:href="#DejaVuSans-73"/>
     <use x="671.386719" xlink:href="#DejaVuSans-2c"/>
     <use x="703.173828" xlink:href="#DejaVuSans-20"/>
     <use x="734.960938" xlink:href="#DejaVuSans-64"/>
     <use x="798.4375" xlink:href="#DejaVuSans-66"/>
     <use x="833.642578" xlink:href="#DejaVuSans-20"/>
     <use x="865.429688" xlink:href="#DejaVuSans-3d"/>
     <use x="949.21875" xlink:href="#DejaVuSans-20"/>
     <use x="981.005859" xlink:href="#DejaVuSans-33"/>
    </g>
   </g>
  </g>
  <g id="axes_2">
   <g id="patch_7">
    <path d="M 57.6 119.740235 
L 414.72 119.740235 
L 414.72 41.472 
L 57.6 41.472 
z
" style="fill:#ffffff;"/>
   </g>
   <g id="matplotlib.axis_3">
    <g id="xtick_1">
     <g id="line2d_1">
      <defs>
       <path d="M 0 0 
L 0 3.5 
" id="m721fe83b70" style="stroke:#000000;stroke-width:0.8;"/>
      </defs>
      <g>
       <use style="stroke:#000000;stroke-width:0.8;" x="73.702813" xlink:href="#m721fe83b70" y="119.740235"/>
      </g>
     </g>
     <g id="text_3">
      <!-- 0.0 -->
      <g transform="translate(65.751251 134.338673)scale(0.1 -0.1)">
       <use xlink:href="#DejaVuSans-30"/>
       <use x="63.623047" xlink:href="#DejaVuSans-2e"/>
       <use x="95.410156" xlink:href="#DejaVuSans-30"/>
      </g>
     </g>
    </g>
    <g id="xtick_2">
     <g id="line2d_2">
      <g>
       <use style="stroke:#000000;stroke-width:0.8;" x="138.659705" xlink:href="#m721fe83b70" y="119.740235"/>
      </g>
     </g>
     <g id="text_4">
      <!-- 0.5 -->
      <g transform="translate(130.708143 134.338673)scale(0.1 -0.1)">
       <use xlink:href="#DejaVuSans-30"/>
       <use x="63.623047" xlink:href="#DejaVuSans-2e"/>
       <use x="95.410156" xlink:href="#DejaVuSans-35"/>
      </g>
     </g>
    </g>
    <g id="xtick_3">
     <g id="line2d_3">
      <g>
       <use style="stroke:#000000;stroke-width:0.8;" x="203.616597" xlink:href="#m721fe83b70" y="119.740235"/>
      </g>
     </g>
     <g id="text_5">
      <!-- 1.0 -->
      <defs>
       <path d="M 12.40625 8.296875 
L 28.515625 8.296875 
L 28.515625 63.921875 
L 10.984375 60.40625 
L 10.984375 69.390625 
L 28.421875 72.90625 
L 38.28125 72.90625 
L 38.28125 8.296875 
L 54.390625 8.296875 
L 54.390625 0 
L 12.40625 0 
z
" id="DejaVuSans-31"/>
      </defs>
      <g transform="translate(195.665035 134.338673)scale(0.1 -0.1)">
       <use xlink:href="#DejaVuSans-31"/>
       <use x="63.623047" xlink:href="#DejaVuSans-2e"/>
       <use x="95.410156" xlink:href="#DejaVuSans-30"/>
      </g>
     </g>
    </g>
    <g id="xtick_4">
     <g id="line2d_4">
      <g>
       <use style="stroke:#000000;stroke-width:0.8;" x="268.573489" xlink:href="#m721fe83b70" y="119.740235"/>
      </g>
     </g>
     <g id="text_6">
      <!-- 1.5 -->
      <g transform="translate(260.621927 134.338673)scale(0.1 -0.1)">
       <use xlink:href="#DejaVuSans-31"/>
       <use x="63.623047" xlink:href="#DejaVuSans-2e"/>
       <use x="95.410156" xlink:href="#DejaVuSans-35"/>
      </g>
     </g>
    </g>
    <g id="xtick_5">
     <g id="line2d_5">
      <g>
       <use style="stroke:#000000;stroke-width:0.8;" x="333.530381" xlink:href="#m721fe83b70" y="119.740235"/>
      </g>
     </g>
     <g id="text_7">
      <!-- 2.0 -->
      <defs>
       <path d="M 19.1875 8.296875 
L 53.609375 8.296875 
L 53.609375 0 
L 7.328125 0 
L 7.328125 8.296875 
Q 12.9375 14.109375 22.625 23.890625 
Q 32.328125 33.6875 34.8125 36.53125 
Q 39.546875 41.84375 41.421875 45.53125 
Q 43.3125 49.21875 43.3125 52.78125 
Q 43.3125 58.59375 39.234375 62.25 
Q 35.15625 65.921875 28.609375 65.921875 
Q 23.96875 65.921875 18.8125 64.3125 
Q 13.671875 62.703125 7.8125 59.421875 
L 7.8125 69.390625 
Q 13.765625 71.78125 18.9375 73 
Q 24.125 74.21875 28.421875 74.21875 
Q 39.75 74.21875 46.484375 68.546875 
Q 53.21875 62.890625 53.21875 53.421875 
Q 53.21875 48.921875 51.53125 44.890625 
Q 49.859375 40.875 45.40625 35.40625 
Q 44.1875 33.984375 37.640625 27.21875 
Q 31.109375 20.453125 19.1875 8.296875 
z
" id="DejaVuSans-32"/>
      </defs>
      <g transform="translate(325.578818 134.338673)scale(0.1 -0.1)">
       <use xlink:href="#DejaVuSans-32"/>
       <use x="63.623047" xlink:href="#DejaVuSans-2e"/>
       <use x="95.410156" xlink:href="#DejaVuSans-30"/>
      </g>
     </g>
    </g>
    <g id="xtick_6">
     <g id="line2d_6">
      <g>
       <use style="stroke:#000000;stroke-width:0.8;" x="398.487273" xlink:href="#m721fe83b70" y="119.740235"/>
      </g>
     </g>
     <g id="text_8">
      <!-- 2.5 -->
      <g transform="translate(390.53571 134.338673)scale(0.1 -0.1)">
       <use xlink:href="#DejaVuSans-32"/>
       <use x="63.623047" xlink:href="#DejaVuSans-2e"/>
       <use x="95.410156" xlink:href="#DejaVuSans-35"/>
      </g>
     </g>
    </g>
   </g>
   <g id="matplotlib.axis_4">
    <g id="ytick_1">
     <g id="line2d_7">
      <defs>
       <path d="M 0 0 
L -3.5 0 
" id="m383f854765" style="stroke:#000000;stroke-width:0.8;"/>
      </defs>
      <g>
       <use style="stroke:#000000;stroke-width:0.8;" x="57.6" xlink:href="#m383f854765" y="106.695529"/>
      </g>
     </g>
     <g id="text_9">
      <!-- 0.0 -->
      <g transform="translate(34.696875 110.494748)scale(0.1 -0.1)">
       <use xlink:href="#DejaVuSans-30"/>
       <use x="63.623047" xlink:href="#DejaVuSans-2e"/>
       <use x="95.410156" xlink:href="#DejaVuSans-30"/>
      </g>
     </g>
    </g>
    <g id="ytick_2">
     <g id="line2d_8">
      <g>
       <use style="stroke:#000000;stroke-width:0.8;" x="57.6" xlink:href="#m383f854765" y="74.083765"/>
      </g>
     </g>
     <g id="text_10">
      <!-- 0.5 -->
      <g transform="translate(34.696875 77.882983)scale(0.1 -0.1)">
       <use xlink:href="#DejaVuSans-30"/>
       <use x="63.623047" xlink:href="#DejaVuSans-2e"/>
       <use x="95.410156" xlink:href="#DejaVuSans-35"/>
      </g>
     </g>
    </g>
    <g id="ytick_3">
     <g id="line2d_9">
      <g>
       <use style="stroke:#000000;stroke-width:0.8;" x="57.6" xlink:href="#m383f854765" y="41.472"/>
      </g>
     </g>
     <g id="text_11">
      <!-- 1.0 -->
      <g transform="translate(34.696875 45.271219)scale(0.1 -0.1)">
       <use xlink:href="#DejaVuSans-31"/>
       <use x="63.623047" xlink:href="#DejaVuSans-2e"/>
       <use x="95.410156" xlink:href="#DejaVuSans-30"/>
      </g>
     </g>
    </g>
    <g id="text_12">
     <!-- u1 -->
     <defs>
      <path d="M 8.5 21.578125 
L 8.5 54.6875 
L 17.484375 54.6875 
L 17.484375 21.921875 
Q 17.484375 14.15625 20.5 10.265625 
Q 23.53125 6.390625 29.59375 6.390625 
Q 36.859375 6.390625 41.078125 11.03125 
Q 45.3125 15.671875 45.3125 23.6875 
L 45.3125 54.6875 
L 54.296875 54.6875 
L 54.296875 0 
L 45.3125 0 
L 45.3125 8.40625 
Q 42.046875 3.421875 37.71875 1 
Q 33.40625 -1.421875 27.6875 -1.421875 
Q 18.265625 -1.421875 13.375 4.4375 
Q 8.5 10.296875 8.5 21.578125 
z
M 31.109375 56 
z
" id="DejaVuSans-75"/>
     </defs>
     <g transform="translate(28.617188 86.956118)rotate(-90)scale(0.1 -0.1)">
      <use xlink:href="#DejaVuSans-75"/>
      <use x="63.378906" xlink:href="#DejaVuSans-31"/>
     </g>
    </g>
   </g>
   <g id="line2d_10">
    <path clip-path="url(#pbb684bf978)" d="M 73.832727 106.695529 
L 75.001951 98.025735 
L 75.65152 91.347635 
L 76.301089 82.094185 
L 77.600227 62.126417 
L 77.860055 59.919138 
L 78.769451 55.597614 
L 79.548934 52.923565 
L 80.198503 51.360149 
L 80.848072 50.27946 
L 81.497641 49.566574 
L 82.277123 49.063731 
L 83.056606 48.831788 
L 83.966002 48.794891 
L 85.135226 48.997338 
L 86.434364 49.454397 
L 87.863416 50.189361 
L 89.292468 51.180933 
L 90.591605 52.372434 
L 91.630916 53.614551 
L 92.540312 55.021053 
L 93.319795 56.591259 
L 94.099278 58.697008 
L 94.748846 61.114758 
L 95.398415 64.53402 
L 95.918071 68.399105 
L 96.567639 75.170712 
L 98.386432 96.823121 
L 99.036001 101.332052 
L 99.68557 104.252283 
L 99.945398 104.742582 
L 100.984708 105.017562 
L 102.41376 105.141685 
L 103.712898 105.105444 
L 104.362466 106.591759 
L 105.012035 107.516197 
L 105.661604 108.086206 
L 106.441087 108.485794 
L 107.480397 108.75049 
L 109.039363 108.886842 
L 112.287207 108.886452 
L 125.798241 108.577817 
L 126.707637 106.097234 
L 127.876861 103.635469 
L 129.695654 100.405147 
L 130.345223 103.161368 
L 130.994792 105.019582 
L 131.644361 106.240759 
L 132.29393 107.030732 
L 133.073413 107.612225 
L 133.982809 107.986804 
L 135.152033 108.212182 
L 137.10074 108.318181 
L 141.647722 108.263566 
L 151.780997 108.035409 
L 153.080135 102.93708 
L 154.379273 97.708537 
L 155.158756 93.65205 
L 155.678411 90.095992 
L 156.847635 97.731842 
L 157.627118 101.412826 
L 158.276687 103.560393 
L 158.926256 105.047997 
L 159.575825 106.053338 
L 160.355307 106.825267 
L 161.13479 107.290545 
L 162.1741 107.630245 
L 163.603152 107.828056 
L 166.071514 107.895624 
L 173.736427 107.769803 
L 177.763754 107.69269 
L 179.972289 96.376827 
L 180.621857 91.571167 
L 181.271426 84.890621 
L 181.661168 79.77304 
L 182.310737 82.292937 
L 183.090219 86.523973 
L 185.298754 99.8306 
L 186.078236 102.755289 
L 186.727805 104.427831 
L 187.377374 105.578623 
L 188.156857 106.476335 
L 188.93634 107.025967 
L 189.845736 107.397671 
L 191.144874 107.652528 
L 193.093581 107.768829 
L 197.510649 107.741383 
L 203.746511 107.628848 
L 205.825132 96.642926 
L 206.4747 91.735452 
L 207.124269 84.913207 
L 207.643924 77.813293 
L 208.16358 79.040245 
L 208.683235 80.776303 
L 209.332804 83.779203 
L 210.2422 89.365563 
L 211.671252 98.253554 
L 212.450734 101.676214 
L 213.100303 103.680178 
L 213.749872 105.075685 
L 214.399441 106.024468 
L 215.178924 106.757933 
L 216.08832 107.25798 
L 217.127631 107.558536 
L 218.686596 107.742865 
L 221.414786 107.79254 
L 229.729268 107.655343 
L 231.937802 96.025456 
L 232.587371 90.979054 
L 233.23694 83.940844 
L 233.626681 78.621082 
L 234.146336 80.15254 
L 234.795905 82.865205 
L 235.575388 87.306859 
L 237.524095 99.234644 
L 238.303577 102.351721 
L 238.953146 104.149639 
L 239.602715 105.392146 
L 240.252284 106.232958 
L 241.031767 106.88077 
L 241.941163 107.321001 
L 243.110387 107.605877 
L 244.799267 107.755897 
L 248.047111 107.774393 
L 255.712024 107.641188 
L 257.790645 96.749062 
L 258.440214 91.915543 
L 259.089783 85.205444 
L 259.609438 78.188022 
L 260.129093 79.557695 
L 260.778662 82.034036 
L 261.428231 85.442678 
L 264.15642 101.295936 
L 264.805989 103.407243 
L 265.455558 104.885311 
L 266.105127 105.893742 
L 266.88461 106.67543 
L 267.664093 107.151378 
L 268.703403 107.503044 
L 270.132454 107.71197 
L 272.470903 107.788904 
L 279.226419 107.693312 
L 281.694781 107.648087 
L 283.903316 95.956432 
L 284.552884 90.862426 
L 285.202453 83.755054 
L 285.592195 78.398688 
L 286.11185 79.847516 
L 286.761419 82.440671 
L 287.540901 86.759586 
L 289.619522 99.447273 
L 290.399005 102.500031 
L 291.048574 104.254591 
L 291.698143 105.464755 
L 292.347711 106.282587 
L 293.127194 106.912009 
L 294.036591 107.339249 
L 295.205815 107.615237 
L 296.894694 107.75987 
L 300.272452 107.774233 
L 307.677538 107.644548 
L 309.886072 95.922706 
L 310.535641 90.805408 
L 311.18521 83.664394 
L 311.574951 78.290524 
L 312.094607 79.698814 
L 312.744175 82.232421 
L 313.523658 86.487363 
L 315.732193 99.847376 
L 316.511675 102.774729 
L 317.161244 104.446725 
L 317.810813 105.59605 
L 318.590296 106.491799 
L 319.369778 107.03971 
L 320.279175 107.409874 
L 321.578313 107.663291 
L 323.52702 107.778481 
L 327.944088 107.750137 
L 333.660295 107.64632 
L 335.868829 95.939596 
L 336.518398 90.833965 
L 337.167967 83.709786 
L 337.557708 78.34465 
L 338.077363 79.773253 
L 338.726932 82.336773 
L 339.506415 86.624081 
L 341.714949 99.943156 
L 342.494432 102.839412 
L 343.144001 104.491365 
L 343.79357 105.62609 
L 344.573052 106.51002 
L 345.352535 107.050487 
L 346.261932 107.415476 
L 347.56107 107.665161 
L 349.509776 107.778306 
L 353.926845 107.749224 
L 359.643051 107.645422 
L 361.851586 95.931034 
L 362.501155 90.819489 
L 363.150724 83.686773 
L 363.540465 78.317202 
L 364.06012 79.73551 
L 364.709689 82.283889 
L 365.489172 86.554872 
L 367.697706 99.894834 
L 368.477189 102.806793 
L 369.126758 104.468857 
L 369.776327 105.610945 
L 370.555809 106.500834 
L 371.335292 107.045054 
L 372.244688 107.412652 
L 373.543826 107.664218 
L 375.492533 107.778394 
L 379.909602 107.749684 
L 398.487273 107.431425 
L 398.487273 107.431425 
" style="fill:none;stroke:#0000ff;stroke-linecap:square;stroke-width:1.5;"/>
   </g>
   <g id="line2d_11">
    <path clip-path="url(#pbb684bf978)" d="M 73.832727 106.695529 
L 75.131865 106.592054 
L 76.171175 106.299327 
L 77.080572 105.8033 
L 78.249796 104.847467 
L 80.718158 102.469185 
L 86.304451 97.028426 
L 89.552295 94.191095 
L 92.410398 91.975307 
L 94.618933 90.522887 
L 96.047984 89.804128 
L 97.087295 89.503113 
L 97.996691 89.459243 
L 99.165915 89.64121 
L 101.894105 90.404249 
L 107.870139 92.208136 
L 114.365828 94.169478 
L 120.731603 95.855081 
L 126.707637 97.224867 
L 129.046085 97.514732 
L 132.034102 97.85075 
L 151.261342 101.035338 
L 153.469877 101.227194 
L 155.158756 101.128154 
L 157.757032 100.855608 
L 159.965566 101.010032 
L 168.409962 102.011725 
L 178.023582 102.985187 
L 179.582547 102.9843 
L 180.881685 102.783198 
L 181.920995 102.413221 
L 183.479961 101.87223 
L 184.779099 101.649353 
L 186.338064 101.615139 
L 189.066253 101.824394 
L 204.785821 103.308698 
L 206.214873 103.187839 
L 207.384097 102.870939 
L 210.502028 101.69733 
L 211.801166 101.527734 
L 213.490045 101.541031 
L 216.737889 101.838421 
L 229.989095 103.163053 
L 231.548061 103.152973 
L 232.847199 102.93706 
L 233.886509 102.54453 
L 235.575388 101.903655 
L 236.874526 101.638198 
L 238.433491 101.570818 
L 240.901853 101.737767 
L 257.27099 103.235057 
L 258.570128 103.059206 
L 259.609438 102.715281 
L 261.428231 101.967319 
L 262.727369 101.651817 
L 264.15642 101.541333 
L 266.235041 101.637742 
L 271.821334 102.222235 
L 281.954609 103.197305 
L 283.513574 103.185444 
L 284.812712 102.966636 
L 285.852022 102.569719 
L 287.540901 101.915231 
L 288.840039 101.635635 
L 290.269091 101.555249 
L 292.477625 101.681225 
L 300.402366 102.513711 
L 308.586934 103.237033 
L 310.015986 103.141074 
L 311.18521 102.859752 
L 314.822796 101.63407 
L 316.251848 101.547995 
L 318.460382 101.670682 
L 325.865468 102.450718 
L 334.439777 103.22739 
L 335.868829 103.151428 
L 337.038053 102.896826 
L 338.337191 102.346824 
L 339.896156 101.809795 
L 341.195294 101.591757 
L 342.75426 101.562352 
L 345.482449 101.776609 
L 360.682362 103.23285 
L 362.111413 103.117022 
L 363.280637 102.808452 
L 366.268654 101.721831 
L 367.697706 101.558268 
L 369.516499 101.601015 
L 373.413912 101.98194 
L 384.846325 103.119501 
L 395.759083 103.962013 
L 398.487273 104.140792 
L 398.487273 104.140792 
" style="fill:none;stroke:#ff0000;stroke-linecap:square;stroke-width:1.5;"/>
   </g>
   <g id="line2d_12">
    <path clip-path="url(#pbb684bf978)" d="M 73.832727 96.912 
L 77.600227 96.912 
L 77.730141 106.695529 
L 99.68557 106.695529 
L 99.815484 96.912 
L 103.582984 96.912 
L 103.712898 106.695529 
L 125.668327 106.695529 
L 125.798241 96.912 
L 129.56574 96.912 
L 129.695654 106.695529 
L 151.651084 106.695529 
L 151.780997 96.912 
L 155.548497 96.912 
L 155.678411 106.695529 
L 177.63384 106.695529 
L 177.763754 96.912 
L 181.531254 96.912 
L 181.661168 106.695529 
L 203.616597 106.695529 
L 203.746511 96.912 
L 207.514011 96.912 
L 207.643924 106.695529 
L 229.599354 106.695529 
L 229.729268 96.912 
L 233.496767 96.912 
L 233.626681 106.695529 
L 255.582111 106.695529 
L 255.712024 96.912 
L 259.479524 96.912 
L 259.609438 106.695529 
L 281.564867 106.695529 
L 281.694781 96.912 
L 285.462281 96.912 
L 285.592195 106.695529 
L 307.547624 106.695529 
L 307.677538 96.912 
L 311.445038 96.912 
L 311.574951 106.695529 
L 333.530381 106.695529 
L 333.660295 96.912 
L 337.427794 96.912 
L 337.557708 106.695529 
L 359.513138 106.695529 
L 359.643051 96.912 
L 363.410551 96.912 
L 363.540465 106.695529 
L 398.487273 106.695529 
L 398.487273 106.695529 
" style="fill:none;stroke:#008000;stroke-linecap:square;stroke-width:1.5;"/>
   </g>
   <g id="line2d_13">
    <path clip-path="url(#pbb684bf978)" d="M 73.832727 106.695529 
L 398.487273 106.695529 
L 398.487273 106.695529 
" style="fill:none;stroke:#00bfbf;stroke-linecap:square;stroke-width:1.5;"/>
   </g>
   <g id="patch_8">
    <path d="M 57.6 119.740235 
L 57.6 41.472 
" style="fill:none;stroke:#000000;stroke-linecap:square;stroke-linejoin:miter;stroke-width:0.8;"/>
   </g>
   <g id="patch_9">
    <path d="M 414.72 119.740235 
L 414.72 41.472 
" style="fill:none;stroke:#000000;stroke-linecap:square;stroke-linejoin:miter;stroke-width:0.8;"/>
   </g>
   <g id="patch_10">
    <path d="M 57.6 119.740235 
L 414.72 119.740235 
" style="fill:none;stroke:#000000;stroke-linecap:square;stroke-linejoin:miter;stroke-width:0.8;"/>
   </g>
   <g id="patch_11">
    <path d="M 57.6 41.472 
L 414.72 41.472 
" style="fill:none;stroke:#000000;stroke-linecap:square;stroke-linejoin:miter;stroke-width:0.8;"/>
   </g>
  </g>
  <g id="axes_3">
   <g id="patch_12">
    <path d="M 57.6 213.662118 
L 414.72 213.662118 
L 414.72 135.393882 
L 57.6 135.393882 
z
" style="fill:#ffffff;"/>
   </g>
   <g id="matplotlib.axis_5">
    <g id="xtick_7">
     <g id="line2d_14">
      <g>
       <use style="stroke:#000000;stroke-width:0.8;" x="73.702813" xlink:href="#m721fe83b70" y="213.662118"/>
      </g>
     </g>
     <g id="text_13">
      <!-- 0.0 -->
      <g transform="translate(65.751251 228.260555)scale(0.1 -0.1)">
       <use xlink:href="#DejaVuSans-30"/>
       <use x="63.623047" xlink:href="#DejaVuSans-2e"/>
       <use x="95.410156" xlink:href="#DejaVuSans-30"/>
      </g>
     </g>
    </g>
    <g id="xtick_8">
     <g id="line2d_15">
      <g>
       <use style="stroke:#000000;stroke-width:0.8;" x="138.659705" xlink:href="#m721fe83b70" y="213.662118"/>
      </g>
     </g>
     <g id="text_14">
      <!-- 0.5 -->
      <g transform="translate(130.708143 228.260555)scale(0.1 -0.1)">
       <use xlink:href="#DejaVuSans-30"/>
       <use x="63.623047" xlink:href="#DejaVuSans-2e"/>
       <use x="95.410156" xlink:href="#DejaVuSans-35"/>
      </g>
     </g>
    </g>
    <g id="xtick_9">
     <g id="line2d_16">
      <g>
       <use style="stroke:#000000;stroke-width:0.8;" x="203.616597" xlink:href="#m721fe83b70" y="213.662118"/>
      </g>
     </g>
     <g id="text_15">
      <!-- 1.0 -->
      <g transform="translate(195.665035 228.260555)scale(0.1 -0.1)">
       <use xlink:href="#DejaVuSans-31"/>
       <use x="63.623047" xlink:href="#DejaVuSans-2e"/>
       <use x="95.410156" xlink:href="#DejaVuSans-30"/>
      </g>
     </g>
    </g>
    <g id="xtick_10">
     <g id="line2d_17">
      <g>
       <use style="stroke:#000000;stroke-width:0.8;" x="268.573489" xlink:href="#m721fe83b70" y="213.662118"/>
      </g>
     </g>
     <g id="text_16">
      <!-- 1.5 -->
      <g transform="translate(260.621927 228.260555)scale(0.1 -0.1)">
       <use xlink:href="#DejaVuSans-31"/>
       <use x="63.623047" xlink:href="#DejaVuSans-2e"/>
       <use x="95.410156" xlink:href="#DejaVuSans-35"/>
      </g>
     </g>
    </g>
    <g id="xtick_11">
     <g id="line2d_18">
      <g>
       <use style="stroke:#000000;stroke-width:0.8;" x="333.530381" xlink:href="#m721fe83b70" y="213.662118"/>
      </g>
     </g>
     <g id="text_17">
      <!-- 2.0 -->
      <g transform="translate(325.578818 228.260555)scale(0.1 -0.1)">
       <use xlink:href="#DejaVuSans-32"/>
       <use x="63.623047" xlink:href="#DejaVuSans-2e"/>
       <use x="95.410156" xlink:href="#DejaVuSans-30"/>
      </g>
     </g>
    </g>
    <g id="xtick_12">
     <g id="line2d_19">
      <g>
       <use style="stroke:#000000;stroke-width:0.8;" x="398.487273" xlink:href="#m721fe83b70" y="213.662118"/>
      </g>
     </g>
     <g id="text_18">
      <!-- 2.5 -->
      <g transform="translate(390.53571 228.260555)scale(0.1 -0.1)">
       <use xlink:href="#DejaVuSans-32"/>
       <use x="63.623047" xlink:href="#DejaVuSans-2e"/>
       <use x="95.410156" xlink:href="#DejaVuSans-35"/>
      </g>
     </g>
    </g>
   </g>
   <g id="matplotlib.axis_6">
    <g id="ytick_4">
     <g id="line2d_20">
      <g>
       <use style="stroke:#000000;stroke-width:0.8;" x="57.6" xlink:href="#m383f854765" y="200.617412"/>
      </g>
     </g>
     <g id="text_19">
      <!-- 0.0 -->
      <g transform="translate(34.696875 204.416631)scale(0.1 -0.1)">
       <use xlink:href="#DejaVuSans-30"/>
       <use x="63.623047" xlink:href="#DejaVuSans-2e"/>
       <use x="95.410156" xlink:href="#DejaVuSans-30"/>
      </g>
     </g>
    </g>
    <g id="ytick_5">
     <g id="line2d_21">
      <g>
       <use style="stroke:#000000;stroke-width:0.8;" x="57.6" xlink:href="#m383f854765" y="168.005647"/>
      </g>
     </g>
     <g id="text_20">
      <!-- 0.5 -->
      <g transform="translate(34.696875 171.804866)scale(0.1 -0.1)">
       <use xlink:href="#DejaVuSans-30"/>
       <use x="63.623047" xlink:href="#DejaVuSans-2e"/>
       <use x="95.410156" xlink:href="#DejaVuSans-35"/>
      </g>
     </g>
    </g>
    <g id="ytick_6">
     <g id="line2d_22">
      <g>
       <use style="stroke:#000000;stroke-width:0.8;" x="57.6" xlink:href="#m383f854765" y="135.393882"/>
      </g>
     </g>
     <g id="text_21">
      <!-- 1.0 -->
      <g transform="translate(34.696875 139.193101)scale(0.1 -0.1)">
       <use xlink:href="#DejaVuSans-31"/>
       <use x="63.623047" xlink:href="#DejaVuSans-2e"/>
       <use x="95.410156" xlink:href="#DejaVuSans-30"/>
      </g>
     </g>
    </g>
    <g id="text_22">
     <!-- u2 -->
     <g transform="translate(28.617188 180.878)rotate(-90)scale(0.1 -0.1)">
      <use xlink:href="#DejaVuSans-75"/>
      <use x="63.378906" xlink:href="#DejaVuSans-32"/>
     </g>
    </g>
   </g>
   <g id="line2d_23">
    <path clip-path="url(#p9aaa2114af)" d="M 73.832727 200.617412 
L 75.261779 200.515374 
L 76.431003 200.205696 
L 77.340399 199.70984 
L 80.328416 197.539217 
L 81.107899 189.544987 
L 81.757468 180.033521 
L 83.316433 154.024024 
L 83.966002 147.742221 
L 84.355744 145.359991 
L 85.005313 143.079044 
L 85.654882 141.593998 
L 86.304451 140.65478 
L 86.954019 140.08054 
L 87.733502 139.702931 
L 88.642899 139.52737 
L 89.812123 139.542232 
L 91.371088 139.796318 
L 93.189881 140.322523 
L 94.618933 140.940119 
L 95.658243 141.59721 
L 96.437726 142.33164 
L 97.087295 143.258469 
L 97.736863 144.670431 
L 98.386432 146.782642 
L 99.036001 149.893142 
L 99.555656 153.471273 
L 100.075312 158.533585 
L 100.72488 167.391296 
L 102.024018 186.197157 
L 102.673587 192.138727 
L 103.323156 195.95015 
L 103.972725 198.323199 
L 104.622294 199.784792 
L 105.271863 200.677578 
L 105.921432 201.218515 
L 106.311173 201.433595 
L 107.350483 201.003242 
L 108.779535 200.687845 
L 110.208587 200.510981 
L 110.858156 201.089528 
L 111.637638 201.490904 
L 112.676949 201.755253 
L 114.235914 201.894691 
L 117.613672 201.913479 
L 132.29393 201.684826 
L 133.073413 200.649675 
L 133.982809 199.858733 
L 135.022119 199.281392 
L 136.191343 198.870294 
L 136.840912 199.906755 
L 137.490481 200.555404 
L 138.269964 201.018252 
L 139.309274 201.334208 
L 140.738326 201.50385 
L 143.466515 201.556018 
L 153.469877 201.409536 
L 158.276687 201.20681 
L 159.056169 199.711046 
L 159.835652 198.672326 
L 160.745049 197.821973 
L 161.914273 197.050906 
L 162.1741 196.9136 
L 162.823669 198.49332 
L 163.473238 199.517423 
L 164.122807 200.173713 
L 164.90229 200.653721 
L 165.9416 200.991988 
L 167.370652 201.183283 
L 169.968927 201.255368 
L 178.803064 201.166565 
L 180.881685 200.95173 
L 183.869702 200.541832 
L 184.259443 200.57285 
L 185.038926 198.442795 
L 185.818409 196.923349 
L 186.727805 195.660396 
L 187.767116 194.641996 
L 188.156857 194.338812 
L 188.806426 196.647064 
L 189.455995 198.205263 
L 190.105564 199.233559 
L 190.755133 199.903405 
L 191.534615 200.401776 
L 192.444012 200.728862 
L 193.74315 200.947503 
L 195.951684 201.054004 
L 202.187546 201.036947 
L 205.825132 200.909564 
L 207.384097 200.630166 
L 209.20289 200.198948 
L 210.2422 200.205038 
L 211.021683 197.590711 
L 211.931079 195.333419 
L 212.840476 193.657995 
L 214.0097 192.016141 
L 214.139614 191.856391 
L 214.919096 195.293337 
L 215.568665 197.230268 
L 216.218234 198.537095 
L 216.867803 199.402047 
L 217.647286 200.054855 
L 218.556682 200.490132 
L 219.725906 200.768699 
L 221.544699 200.925507 
L 225.312199 200.964102 
L 231.677974 200.839309 
L 233.366854 200.541577 
L 235.185647 200.120487 
L 236.224957 200.15101 
L 237.00444 197.522252 
L 237.913836 195.214827 
L 238.953146 193.204173 
L 240.12237 191.361862 
L 240.901853 194.911388 
L 241.551422 196.933432 
L 242.200991 198.308445 
L 242.85056 199.224936 
L 243.630043 199.92114 
L 244.539439 200.388665 
L 245.708663 200.690629 
L 247.397542 200.857483 
L 250.775301 200.912696 
L 257.530817 200.803922 
L 259.219697 200.515689 
L 261.428231 200.016984 
L 262.207714 200.048231 
L 263.11711 196.884514 
L 264.026507 194.497969 
L 265.195731 192.095695 
L 266.105127 190.469257 
L 266.88461 194.265534 
L 267.534179 196.468846 
L 268.183748 197.981652 
L 268.833317 198.996398 
L 269.612799 199.771127 
L 270.392282 200.237024 
L 271.431592 200.579281 
L 272.860644 200.786357 
L 275.329006 200.881564 
L 282.604178 200.85543 
L 284.422971 200.661016 
L 285.722108 200.331145 
L 286.631505 200.073305 
L 287.670815 200.003443 
L 288.19047 200.038185 
L 289.099867 196.875286 
L 290.009263 194.479297 
L 291.178487 192.040357 
L 292.087884 190.363085 
L 292.867367 194.179462 
L 293.516936 196.400134 
L 294.166504 197.927875 
L 294.816073 198.954377 
L 295.595556 199.739282 
L 296.375039 200.212019 
L 297.414349 200.559902 
L 298.843401 200.770972 
L 301.311763 200.868826 
L 308.586934 200.844655 
L 310.405727 200.648804 
L 311.704865 200.315445 
L 312.614262 200.053773 
L 313.653572 199.980087 
L 314.173227 200.01359 
L 315.082624 196.810878 
L 315.99202 194.372173 
L 317.161244 191.872024 
L 318.070641 190.134685 
L 318.850123 194.011918 
L 319.499692 196.279146 
L 320.149261 197.84282 
L 320.79883 198.895155 
L 321.578313 199.700803 
L 322.357795 200.186548 
L 323.397106 200.54439 
L 324.826157 200.761875 
L 327.294519 200.863258 
L 334.439777 200.8463 
L 336.25857 200.666105 
L 337.557708 200.358235 
L 338.726932 200.029292 
L 339.766242 199.982875 
L 340.155984 200.012415 
L 341.06538 196.81179 
L 341.974777 194.372887 
L 343.144001 191.866948 
L 344.053397 190.120244 
L 344.83288 193.999245 
L 345.482449 196.268377 
L 346.132018 197.833939 
L 346.781587 198.887891 
L 347.56107 199.695022 
L 348.340552 200.18181 
L 349.379862 200.540546 
L 350.808914 200.758698 
L 353.277276 200.860554 
L 360.422534 200.844001 
L 362.241327 200.663512 
L 363.540465 200.354905 
L 364.709689 200.024798 
L 365.748999 199.977452 
L 366.138741 200.00676 
L 367.048137 196.796773 
L 367.957534 194.347872 
L 369.126758 191.827713 
L 370.036154 190.067041 
L 370.815637 193.960168 
L 371.465206 196.240193 
L 372.114775 197.814177 
L 372.764344 198.874186 
L 373.543826 199.686179 
L 374.323309 200.176014 
L 375.362619 200.537079 
L 376.791671 200.756726 
L 379.260033 200.8594 
L 387.184774 200.846681 
L 398.487273 200.798197 
L 398.487273 200.798197 
" style="fill:none;stroke:#0000ff;stroke-linecap:square;stroke-width:1.5;"/>
   </g>
   <g id="line2d_24">
    <path clip-path="url(#p9aaa2114af)" d="M 73.832727 200.617412 
L 79.938675 200.511636 
L 81.367727 200.341649 
L 82.277123 199.984682 
L 83.18652 199.353813 
L 84.485658 198.128004 
L 94.618933 187.884022 
L 97.60695 185.324698 
L 99.425743 184.018812 
L 100.594967 183.428059 
L 101.504363 183.22135 
L 102.41376 183.243405 
L 103.712898 183.509048 
L 106.441087 184.356956 
L 111.247897 185.81593 
L 119.692293 188.222333 
L 126.44781 189.88455 
L 133.203326 191.318948 
L 139.569102 192.332696 
L 148.79298 193.829313 
L 157.107463 194.946398 
L 160.874962 195.286647 
L 165.681772 195.616098 
L 179.712461 196.939444 
L 185.558581 197.301901 
L 193.483322 197.416617 
L 208.033666 198.287499 
L 211.931079 198.347694 
L 218.037027 198.09914 
L 238.04375 198.834943 
L 243.88987 198.506752 
L 255.452197 198.968347 
L 263.11711 199.14615 
L 265.325644 198.943906 
L 268.053834 198.669334 
L 271.171765 198.718623 
L 289.359694 199.24419 
L 291.698143 198.993018 
L 293.906677 198.768427 
L 296.894694 198.798488 
L 315.732193 199.274362 
L 318.070641 198.978876 
L 319.629606 198.818086 
L 322.227882 198.815399 
L 335.089346 199.249477 
L 341.195294 199.331383 
L 343.403828 199.102824 
L 346.002104 198.824466 
L 349.120035 198.859713 
L 367.437878 199.327948 
L 369.776327 199.053086 
L 371.725033 198.841188 
L 374.453223 198.848147 
L 398.487273 199.576108 
L 398.487273 199.576108 
" style="fill:none;stroke:#ff0000;stroke-linecap:square;stroke-width:1.5;"/>
   </g>
   <g id="line2d_25">
    <path clip-path="url(#p9aaa2114af)" d="M 73.832727 200.617412 
L 80.198503 200.617412 
L 80.328416 192.364539 
L 84.095916 192.364539 
L 84.22583 200.617412 
L 106.181259 200.617412 
L 106.311173 192.364539 
L 110.078673 192.364539 
L 110.208587 200.617412 
L 132.164016 200.617412 
L 132.29393 192.364539 
L 136.06143 192.364539 
L 136.191343 200.617412 
L 158.146773 200.617412 
L 158.276687 192.364539 
L 162.044186 192.364539 
L 162.1741 200.617412 
L 184.12953 200.617412 
L 184.259443 192.364539 
L 188.026943 192.364539 
L 188.156857 200.617412 
L 210.112286 200.617412 
L 210.2422 192.364539 
L 214.0097 192.364539 
L 214.139614 200.617412 
L 236.095043 200.617412 
L 236.224957 192.364539 
L 239.992457 192.364539 
L 240.12237 200.617412 
L 262.0778 200.617412 
L 262.207714 192.364539 
L 265.975213 192.364539 
L 266.105127 200.617412 
L 288.060557 200.617412 
L 288.19047 192.364539 
L 291.95797 192.364539 
L 292.087884 200.617412 
L 314.043313 200.617412 
L 314.173227 192.364539 
L 317.940727 192.364539 
L 318.070641 200.617412 
L 340.02607 200.617412 
L 340.155984 192.364539 
L 343.923484 192.364539 
L 344.053397 200.617412 
L 366.008827 200.617412 
L 366.138741 192.364539 
L 369.90624 192.364539 
L 370.036154 200.617412 
L 398.487273 200.617412 
L 398.487273 200.617412 
" style="fill:none;stroke:#008000;stroke-linecap:square;stroke-width:1.5;"/>
   </g>
   <g id="line2d_26">
    <path clip-path="url(#p9aaa2114af)" d="M 73.832727 200.617412 
L 74.092555 200.52936 
L 75.391693 199.508989 
L 76.171175 198.559635 
L 77.989968 195.939773 
L 79.289106 195.362123 
L 80.588244 195.035529 
L 82.277123 194.860455 
L 84.875399 194.838316 
L 89.03264 195.036039 
L 92.280485 195.385137 
L 94.099278 195.777508 
L 95.268502 196.249057 
L 96.047984 196.787769 
L 96.827467 197.625978 
L 98.516346 199.630171 
L 99.295829 200.150409 
L 100.075312 200.422117 
L 108.649621 200.617412 
L 126.967465 200.527166 
L 129.825568 199.988374 
L 130.864878 200.384497 
L 132.164016 200.617412 
L 152.430566 200.538011 
L 155.28867 199.313064 
L 155.808325 198.957458 
L 157.237376 199.85814 
L 158.4066 200.303898 
L 159.835652 200.568861 
L 161.264704 200.617412 
L 178.283409 200.526952 
L 180.232116 199.500333 
L 181.011599 198.864832 
L 181.920995 197.968295 
L 182.960306 198.445762 
L 186.20815 200.223388 
L 187.507288 200.505721 
L 189.066253 200.617412 
L 204.266166 200.515413 
L 206.084959 199.525121 
L 206.864442 198.876141 
L 207.643924 197.917648 
L 207.773838 197.729188 
L 208.943062 198.077917 
L 209.982373 198.630253 
L 212.320821 200.014598 
L 213.490045 200.378048 
L 215.04901 200.603088 
L 216.478062 200.617412 
L 230.248923 200.520204 
L 232.19763 199.461316 
L 232.977112 198.792401 
L 233.886509 197.843448 
L 234.925819 198.234379 
L 236.095043 198.933755 
L 237.783922 199.931399 
L 238.953146 200.331842 
L 240.382198 200.571155 
L 241.941163 200.617412 
L 256.23168 200.517643 
L 258.180386 199.446333 
L 258.959869 198.764557 
L 259.869266 197.796399 
L 260.908576 198.151262 
L 262.0778 198.819709 
L 263.896593 199.913897 
L 265.065817 200.322668 
L 266.494868 200.567622 
L 268.053834 200.617412 
L 282.214436 200.518891 
L 284.163143 199.453645 
L 284.942626 198.778147 
L 285.852022 197.819293 
L 286.891333 198.191926 
L 288.060557 198.87636 
L 289.749436 199.892586 
L 290.91866 200.310604 
L 292.347711 200.562276 
L 293.906677 200.617412 
L 308.197193 200.518251 
L 310.1459 199.449897 
L 310.925383 198.77118 
L 311.834779 197.80754 
L 312.874089 198.171101 
L 314.043313 198.847555 
L 315.862106 199.932596 
L 317.03133 200.332848 
L 318.460382 200.571855 
L 319.889434 200.617412 
L 334.17995 200.518571 
L 336.128657 199.451774 
L 336.908139 198.774669 
L 337.817536 197.813422 
L 338.856846 198.181536 
L 340.02607 198.862043 
L 341.844863 199.942174 
L 343.014087 200.338044 
L 344.443139 200.574013 
L 345.87219 200.617412 
L 360.162707 200.518409 
L 362.111413 199.450822 
L 362.890896 198.7729 
L 363.800292 197.810439 
L 364.839603 198.176248 
L 366.008827 198.854714 
L 367.82762 199.937342 
L 368.996844 200.335424 
L 370.425895 200.572925 
L 371.854947 200.617412 
L 398.487273 200.617412 
L 398.487273 200.617412 
" style="fill:none;stroke:#00bfbf;stroke-linecap:square;stroke-width:1.5;"/>
   </g>
   <g id="patch_13">
    <path d="M 57.6 213.662118 
L 57.6 135.393882 
" style="fill:none;stroke:#000000;stroke-linecap:square;stroke-linejoin:miter;stroke-width:0.8;"/>
   </g>
   <g id="patch_14">
    <path d="M 414.72 213.662118 
L 414.72 135.393882 
" style="fill:none;stroke:#000000;stroke-linecap:square;stroke-linejoin:miter;stroke-width:0.8;"/>
   </g>
   <g id="patch_15">
    <path d="M 57.6 213.662118 
L 414.72 213.662118 
" style="fill:none;stroke:#000000;stroke-linecap:square;stroke-linejoin:miter;stroke-width:0.8;"/>
   </g>
   <g id="patch_16">
    <path d="M 57.6 135.393882 
L 414.72 135.393882 
" style="fill:none;stroke:#000000;stroke-linecap:square;stroke-linejoin:miter;stroke-width:0.8;"/>
   </g>
  </g>
  <g id="axes_4">
   <g id="patch_17">
    <path d="M 57.6 307.584 
L 414.72 307.584 
L 414.72 229.315765 
L 57.6 229.315765 
z
" style="fill:#ffffff;"/>
   </g>
   <g id="matplotlib.axis_7">
    <g id="xtick_13">
     <g id="line2d_27">
      <g>
       <use style="stroke:#000000;stroke-width:0.8;" x="73.702813" xlink:href="#m721fe83b70" y="307.584"/>
      </g>
     </g>
     <g id="text_23">
      <!-- 0.0 -->
      <g transform="translate(65.751251 322.182437)scale(0.1 -0.1)">
       <use xlink:href="#DejaVuSans-30"/>
       <use x="63.623047" xlink:href="#DejaVuSans-2e"/>
       <use x="95.410156" xlink:href="#DejaVuSans-30"/>
      </g>
     </g>
    </g>
    <g id="xtick_14">
     <g id="line2d_28">
      <g>
       <use style="stroke:#000000;stroke-width:0.8;" x="138.659705" xlink:href="#m721fe83b70" y="307.584"/>
      </g>
     </g>
     <g id="text_24">
      <!-- 0.5 -->
      <g transform="translate(130.708143 322.182437)scale(0.1 -0.1)">
       <use xlink:href="#DejaVuSans-30"/>
       <use x="63.623047" xlink:href="#DejaVuSans-2e"/>
       <use x="95.410156" xlink:href="#DejaVuSans-35"/>
      </g>
     </g>
    </g>
    <g id="xtick_15">
     <g id="line2d_29">
      <g>
       <use style="stroke:#000000;stroke-width:0.8;" x="203.616597" xlink:href="#m721fe83b70" y="307.584"/>
      </g>
     </g>
     <g id="text_25">
      <!-- 1.0 -->
      <g transform="translate(195.665035 322.182437)scale(0.1 -0.1)">
       <use xlink:href="#DejaVuSans-31"/>
       <use x="63.623047" xlink:href="#DejaVuSans-2e"/>
       <use x="95.410156" xlink:href="#DejaVuSans-30"/>
      </g>
     </g>
    </g>
    <g id="xtick_16">
     <g id="line2d_30">
      <g>
       <use style="stroke:#000000;stroke-width:0.8;" x="268.573489" xlink:href="#m721fe83b70" y="307.584"/>
      </g>
     </g>
     <g id="text_26">
      <!-- 1.5 -->
      <g transform="translate(260.621927 322.182437)scale(0.1 -0.1)">
       <use xlink:href="#DejaVuSans-31"/>
       <use x="63.623047" xlink:href="#DejaVuSans-2e"/>
       <use x="95.410156" xlink:href="#DejaVuSans-35"/>
      </g>
     </g>
    </g>
    <g id="xtick_17">
     <g id="line2d_31">
      <g>
       <use style="stroke:#000000;stroke-width:0.8;" x="333.530381" xlink:href="#m721fe83b70" y="307.584"/>
      </g>
     </g>
     <g id="text_27">
      <!-- 2.0 -->
      <g transform="translate(325.578818 322.182437)scale(0.1 -0.1)">
       <use xlink:href="#DejaVuSans-32"/>
       <use x="63.623047" xlink:href="#DejaVuSans-2e"/>
       <use x="95.410156" xlink:href="#DejaVuSans-30"/>
      </g>
     </g>
    </g>
    <g id="xtick_18">
     <g id="line2d_32">
      <g>
       <use style="stroke:#000000;stroke-width:0.8;" x="398.487273" xlink:href="#m721fe83b70" y="307.584"/>
      </g>
     </g>
     <g id="text_28">
      <!-- 2.5 -->
      <g transform="translate(390.53571 322.182437)scale(0.1 -0.1)">
       <use xlink:href="#DejaVuSans-32"/>
       <use x="63.623047" xlink:href="#DejaVuSans-2e"/>
       <use x="95.410156" xlink:href="#DejaVuSans-35"/>
      </g>
     </g>
    </g>
   </g>
   <g id="matplotlib.axis_8">
    <g id="ytick_7">
     <g id="line2d_33">
      <g>
       <use style="stroke:#000000;stroke-width:0.8;" x="57.6" xlink:href="#m383f854765" y="294.539294"/>
      </g>
     </g>
     <g id="text_29">
      <!-- 0.0 -->
      <g transform="translate(34.696875 298.338513)scale(0.1 -0.1)">
       <use xlink:href="#DejaVuSans-30"/>
       <use x="63.623047" xlink:href="#DejaVuSans-2e"/>
       <use x="95.410156" xlink:href="#DejaVuSans-30"/>
      </g>
     </g>
    </g>
    <g id="ytick_8">
     <g id="line2d_34">
      <g>
       <use style="stroke:#000000;stroke-width:0.8;" x="57.6" xlink:href="#m383f854765" y="261.927529"/>
      </g>
     </g>
     <g id="text_30">
      <!-- 0.5 -->
      <g transform="translate(34.696875 265.726748)scale(0.1 -0.1)">
       <use xlink:href="#DejaVuSans-30"/>
       <use x="63.623047" xlink:href="#DejaVuSans-2e"/>
       <use x="95.410156" xlink:href="#DejaVuSans-35"/>
      </g>
     </g>
    </g>
    <g id="ytick_9">
     <g id="line2d_35">
      <g>
       <use style="stroke:#000000;stroke-width:0.8;" x="57.6" xlink:href="#m383f854765" y="229.315765"/>
      </g>
     </g>
     <g id="text_31">
      <!-- 1.0 -->
      <g transform="translate(34.696875 233.114983)scale(0.1 -0.1)">
       <use xlink:href="#DejaVuSans-31"/>
       <use x="63.623047" xlink:href="#DejaVuSans-2e"/>
       <use x="95.410156" xlink:href="#DejaVuSans-30"/>
      </g>
     </g>
    </g>
    <g id="text_32">
     <!-- u3 -->
     <g transform="translate(28.617188 274.799882)rotate(-90)scale(0.1 -0.1)">
      <use xlink:href="#DejaVuSans-75"/>
      <use x="63.378906" xlink:href="#DejaVuSans-33"/>
     </g>
    </g>
   </g>
   <g id="line2d_36">
    <path clip-path="url(#paaf95c3829)" d="M 73.832727 294.539294 
L 74.872038 294.627985 
L 76.171175 294.992803 
L 78.899365 295.86677 
L 80.718158 296.06047 
L 82.666865 296.049837 
L 86.824106 295.741093 
L 87.603588 294.410431 
L 88.512985 293.340276 
L 89.552295 292.495242 
L 90.721519 291.813119 
L 91.371088 293.228172 
L 92.020657 294.110973 
L 92.670226 294.65398 
L 93.449709 295.027719 
L 94.489019 295.251396 
L 95.788157 295.273047 
L 96.827467 295.090704 
L 97.60695 294.760027 
L 98.64626 294.037912 
L 100.075312 293.020963 
L 100.72488 292.836598 
L 101.374449 292.914818 
L 102.41376 293.356044 
L 104.102639 294.062877 
L 105.401777 294.319152 
L 107.350483 294.477082 
L 111.637638 294.536354 
L 112.806862 294.538768 
L 114.365828 288.008039 
L 115.405138 283.256841 
L 116.184621 278.544416 
L 116.704276 274.314582 
L 118.393155 285.323576 
L 119.172638 288.745344 
L 119.822207 290.714386 
L 120.471776 292.069319 
L 121.121345 292.982282 
L 121.900827 293.683551 
L 122.810224 294.160625 
L 123.979448 294.474043 
L 125.668327 294.652575 
L 131.774275 294.877888 
L 134.892206 294.710976 
L 138.789619 294.680145 
L 139.958843 290.18062 
L 141.647722 283.73941 
L 142.427205 279.84412 
L 142.687033 278.255371 
L 143.726343 285.015709 
L 144.505826 288.602847 
L 145.155395 290.659281 
L 145.804963 292.068165 
L 146.454532 293.013048 
L 147.234015 293.735044 
L 148.143412 294.223065 
L 149.182722 294.516638 
L 150.741687 294.703514 
L 154.898928 295.0655 
L 156.977549 295.305431 
L 158.796342 295.098821 
L 162.304014 294.707578 
L 164.512548 294.697646 
L 164.772376 294.701889 
L 165.9416 290.331393 
L 167.760393 283.708779 
L 168.539876 280.001317 
L 168.669789 279.270936 
L 169.579186 285.12431 
L 170.358669 288.702723 
L 171.008237 290.744477 
L 171.657806 292.13875 
L 172.307375 293.07132 
L 173.086858 293.78209 
L 173.996255 294.261162 
L 175.035565 294.54837 
L 176.59453 294.730168 
L 180.232116 295.050669 
L 183.609874 295.603077 
L 185.038926 295.449309 
L 189.715822 294.69951 
L 190.755133 294.699476 
L 191.924357 290.325604 
L 193.873063 283.253256 
L 194.652546 279.457973 
L 195.561943 285.280732 
L 196.341425 288.817449 
L 196.990994 290.828793 
L 197.640563 292.199663 
L 198.290132 293.115307 
L 199.069615 293.812358 
L 199.979011 294.281626 
L 201.148235 294.585715 
L 202.837114 294.754744 
L 205.955045 295.018822 
L 209.852459 295.672409 
L 211.28151 295.529604 
L 213.879786 294.944107 
L 215.438752 294.710278 
L 216.737889 294.685491 
L 217.907113 290.275031 
L 219.85582 283.188541 
L 220.635303 279.390452 
L 221.544699 285.23748 
L 222.324182 288.791907 
L 222.973751 290.813637 
L 223.62332 292.191501 
L 224.272889 293.111677 
L 225.052371 293.812027 
L 225.961768 294.283374 
L 227.130992 294.588683 
L 228.819871 294.758266 
L 231.937802 295.017715 
L 235.835216 295.639061 
L 237.264267 295.471081 
L 241.941163 294.660639 
L 242.720646 294.666895 
L 243.88987 290.256532 
L 245.838577 283.17997 
L 246.61806 279.397972 
L 247.527456 285.24939 
L 248.306939 288.803277 
L 248.956508 290.823543 
L 249.606077 292.199856 
L 250.255646 293.118689 
L 251.035128 293.81779 
L 251.944525 294.288126 
L 253.113749 294.592638 
L 254.802628 294.761634 
L 257.920559 295.022539 
L 261.817972 295.65761 
L 263.247024 295.501279 
L 266.105127 294.844624 
L 267.404265 294.668401 
L 268.703403 294.659366 
L 269.872627 290.237232 
L 271.821334 283.148655 
L 272.600816 279.365671 
L 273.510213 285.228864 
L 274.289696 288.791259 
L 274.939264 290.816486 
L 275.588833 292.196125 
L 276.238402 293.117104 
L 277.017885 293.817761 
L 277.927281 294.289072 
L 279.096506 294.594151 
L 280.785385 294.7634 
L 283.903316 295.022992 
L 287.800729 295.649306 
L 289.229781 295.486675 
L 294.036591 294.647561 
L 294.68616 294.655713 
L 295.855384 290.235923 
L 297.80409 283.156139 
L 298.583573 279.383644 
L 299.49297 285.244769 
L 300.272452 288.803332 
L 300.922021 290.825603 
L 301.57159 292.202902 
L 302.221159 293.122156 
L 303.000642 293.821391 
L 303.910038 294.291667 
L 305.079262 294.596013 
L 306.768141 294.764791 
L 309.886072 295.02454 
L 313.783486 295.654107 
L 315.212537 295.494482 
L 318.200554 294.807001 
L 319.369778 294.659308 
L 320.668916 294.654047 
L 321.708227 290.686325 
L 323.916761 282.591342 
L 324.56633 279.381381 
L 325.475726 285.244368 
L 326.255209 288.803736 
L 326.904778 290.826308 
L 327.554347 292.203728 
L 328.203916 293.123009 
L 328.983398 293.822224 
L 329.892795 294.292455 
L 331.062019 294.596744 
L 332.750898 294.765463 
L 335.868829 295.024795 
L 339.766242 295.652054 
L 341.195294 295.490848 
L 346.132018 294.645566 
L 346.651673 294.653494 
L 347.690983 290.686834 
L 349.899518 282.596578 
L 350.549087 279.390239 
L 351.458483 285.251745 
L 352.237966 288.809131 
L 352.887535 290.830268 
L 353.537104 292.206585 
L 354.186672 293.125072 
L 354.966155 293.823643 
L 355.875552 294.293415 
L 357.044776 294.597387 
L 358.733655 294.765907 
L 361.851586 295.025236 
L 365.748999 295.6533 
L 367.178051 295.492869 
L 372.114775 294.645305 
L 372.63443 294.653204 
L 373.67374 290.686216 
L 375.882274 282.596591 
L 376.531843 279.391188 
L 377.44124 285.252821 
L 378.220722 288.810053 
L 378.870291 290.831023 
L 379.51986 292.207192 
L 380.169429 293.125559 
L 380.948912 293.824026 
L 381.858308 294.293718 
L 383.027532 294.597628 
L 384.716412 294.766107 
L 388.09417 294.822755 
L 398.487273 294.7756 
L 398.487273 294.7756 
" style="fill:none;stroke:#0000ff;stroke-linecap:square;stroke-width:1.5;"/>
   </g>
   <g id="line2d_37">
    <path clip-path="url(#paaf95c3829)" d="M 73.832727 294.539294 
L 80.977985 294.647239 
L 89.03264 294.758594 
L 94.87876 294.65428 
L 100.854794 294.619494 
L 106.571001 294.532204 
L 114.625655 294.406427 
L 116.184621 294.080985 
L 118.782896 293.399606 
L 120.601689 293.282333 
L 124.369189 293.318533 
L 140.608412 293.588376 
L 142.297291 293.30415 
L 144.505826 292.87437 
L 146.584446 292.809136 
L 151.780997 292.954698 
L 166.331341 293.351218 
L 168.150134 293.094551 
L 170.618496 292.673134 
L 172.956944 292.644534 
L 180.102202 292.897527 
L 192.184184 293.286936 
L 194.002977 293.050918 
L 196.731167 292.606604 
L 199.199529 292.596473 
L 207.514011 292.91568 
L 217.647286 293.288868 
L 219.466079 293.114718 
L 223.62332 292.552517 
L 227.260906 292.637719 
L 244.669353 293.189892 
L 246.488146 292.885714 
L 248.047111 292.602151 
L 249.995818 292.528329 
L 254.282973 292.657124 
L 270.392282 293.201456 
L 272.211075 292.931109 
L 274.289696 292.565195 
L 276.368316 292.51773 
L 281.694781 292.702006 
L 296.375039 293.190516 
L 298.193832 292.920694 
L 300.272452 292.555802 
L 302.351073 292.509024 
L 307.677538 292.694369 
L 322.357795 293.185339 
L 324.176588 292.915548 
L 326.255209 292.550813 
L 328.33383 292.504259 
L 333.660295 292.690141 
L 348.340552 293.181808 
L 350.159345 292.912251 
L 352.237966 292.547938 
L 354.316586 292.501634 
L 359.772965 292.693132 
L 374.323309 293.180255 
L 376.142102 292.91074 
L 378.220722 292.546524 
L 380.299343 292.500302 
L 385.755722 292.69196 
L 398.487273 293.151309 
L 398.487273 293.151309 
" style="fill:none;stroke:#ff0000;stroke-linecap:square;stroke-width:1.5;"/>
   </g>
   <g id="line2d_38">
    <path clip-path="url(#paaf95c3829)" d="M 73.832727 294.539294 
L 86.694192 294.539294 
L 86.824106 284.755765 
L 90.591605 284.755765 
L 90.721519 294.539294 
L 112.676949 294.539294 
L 112.806862 284.755765 
L 116.574362 284.755765 
L 116.704276 294.539294 
L 138.659705 294.539294 
L 138.789619 284.755765 
L 142.557119 284.755765 
L 142.687033 294.539294 
L 164.642462 294.539294 
L 164.772376 284.755765 
L 168.539876 284.755765 
L 168.669789 294.539294 
L 190.625219 294.539294 
L 190.755133 284.755765 
L 194.522632 284.755765 
L 194.652546 294.539294 
L 216.607976 294.539294 
L 216.737889 284.755765 
L 220.505389 284.755765 
L 220.635303 294.539294 
L 242.590732 294.539294 
L 242.720646 284.755765 
L 246.488146 284.755765 
L 246.61806 294.539294 
L 268.573489 294.539294 
L 268.703403 284.755765 
L 272.470903 284.755765 
L 272.600816 294.539294 
L 294.556246 294.539294 
L 294.68616 284.755765 
L 298.453659 284.755765 
L 298.583573 294.539294 
L 320.539003 294.539294 
L 320.668916 284.755765 
L 324.436416 284.755765 
L 324.56633 294.539294 
L 346.521759 294.539294 
L 346.651673 284.755765 
L 350.419173 284.755765 
L 350.549087 294.539294 
L 372.504516 294.539294 
L 372.63443 284.755765 
L 376.401929 284.755765 
L 376.531843 294.539294 
L 398.487273 294.539294 
L 398.487273 294.539294 
" style="fill:none;stroke:#008000;stroke-linecap:square;stroke-width:1.5;"/>
   </g>
   <g id="line2d_39">
    <path clip-path="url(#paaf95c3829)" d="M 73.832727 294.539294 
L 73.962641 294.539294 
L 75.131865 296.266812 
L 75.781434 297.59125 
L 76.431003 299.423343 
L 77.730141 303.343532 
L 77.989968 303.764581 
L 79.029279 304.650244 
L 79.938675 305.157215 
L 80.45833 305.348727 
L 81.107899 304.902387 
L 81.757468 304.144623 
L 83.966002 300.937136 
L 84.615571 300.528054 
L 85.784795 300.145159 
L 87.733502 299.783896 
L 91.760829 299.079457 
L 93.319795 298.589103 
L 94.359105 298.067045 
L 95.138588 297.465807 
L 95.788157 296.713671 
L 96.437726 295.597437 
L 97.347122 293.43454 
L 98.126605 291.729588 
L 98.776174 290.834481 
L 99.295829 290.479371 
L 99.815484 290.423772 
L 100.075312 290.577993 
L 100.72488 291.370943 
L 102.41376 293.67642 
L 103.193242 294.252776 
L 103.842811 294.546442 
L 104.752208 294.456032 
L 105.921432 294.539294 
L 126.707637 294.596059 
L 128.396516 295.296054 
L 129.825568 295.797371 
L 130.605051 295.159213 
L 131.514447 294.715572 
L 132.29393 294.539294 
L 134.632378 294.431273 
L 136.581085 294.411883 
L 138.010136 294.539294 
L 152.300653 294.595071 
L 155.158756 296.995472 
L 155.808325 297.859202 
L 157.107463 296.191314 
L 158.016859 295.405807 
L 159.315997 294.668026 
L 160.355307 294.304614 
L 162.433928 294.206086 
L 163.733066 294.444876 
L 165.551859 294.539294 
L 178.153496 294.595275 
L 180.102202 296.603035 
L 180.881685 297.796035 
L 181.531254 299.223961 
L 181.791082 299.923792 
L 182.570564 299.29464 
L 183.479961 298.235226 
L 186.078236 295.019388 
L 186.987633 294.428999 
L 188.026943 294.025589 
L 188.416684 293.986234 
L 191.144874 294.487509 
L 193.483322 294.539294 
L 204.136252 294.614721 
L 205.955045 296.549815 
L 206.734528 297.768111 
L 207.384097 299.225998 
L 207.773838 300.309289 
L 208.683235 299.787458 
L 209.462717 299.079874 
L 210.372114 297.96405 
L 211.671252 295.924831 
L 212.580648 294.913449 
L 213.490045 294.243804 
L 214.269527 293.864443 
L 216.867803 294.40324 
L 219.076337 294.538424 
L 230.119009 294.60665 
L 231.937802 296.504331 
L 232.717285 297.682589 
L 233.366854 299.086087 
L 233.756595 300.138801 
L 234.536078 299.614156 
L 235.31556 298.84041 
L 236.354871 297.512861 
L 237.394181 295.909433 
L 238.303577 294.900798 
L 239.212974 294.227554 
L 240.252284 293.734728 
L 242.590732 294.349644 
L 244.539439 294.511346 
L 248.047111 294.539294 
L 256.101766 294.610963 
L 257.920559 296.528588 
L 258.700041 297.728161 
L 259.34961 299.152568 
L 259.739352 300.218844 
L 260.518834 299.743549 
L 261.298317 299.025307 
L 262.337627 297.73142 
L 263.506851 295.885491 
L 264.416248 294.852777 
L 265.325644 294.154379 
L 266.235041 293.684836 
L 268.573489 294.32132 
L 270.392282 294.495056 
L 273.640127 294.539294 
L 282.084523 294.608861 
L 283.903316 296.516752 
L 284.682798 297.705915 
L 285.332367 299.115181 
L 285.722108 300.174669 
L 286.501591 299.674574 
L 287.281074 298.92832 
L 288.320384 297.616285 
L 289.489608 295.795896 
L 290.399005 294.791907 
L 291.308401 294.113713 
L 292.217798 293.654146 
L 294.556246 294.316451 
L 296.375039 294.49246 
L 299.622883 294.539294 
L 308.067279 294.60994 
L 309.886072 296.52282 
L 310.665555 297.717318 
L 311.315124 299.131925 
L 311.704865 300.194784 
L 312.484348 299.707078 
L 313.263831 298.974887 
L 314.303141 297.671743 
L 315.472365 295.83288 
L 316.381761 294.809295 
L 317.291158 294.114516 
L 318.200554 293.641378 
L 320.539003 294.309089 
L 322.357795 294.489737 
L 325.475726 294.539294 
L 334.050036 294.6094 
L 335.868829 296.519782 
L 336.648312 297.711607 
L 337.297881 299.122435 
L 337.687622 300.183552 
L 338.467105 299.689499 
L 339.246587 298.95016 
L 340.285898 297.642465 
L 341.455122 295.810453 
L 342.364518 294.794434 
L 343.273915 294.105081 
L 344.183311 293.634834 
L 346.521759 294.30827 
L 348.340552 294.489248 
L 351.458483 294.539294 
L 360.032793 294.609673 
L 361.851586 296.521322 
L 362.631068 297.714502 
L 363.280637 299.126735 
L 363.670379 300.188709 
L 364.449861 299.697809 
L 365.229344 298.962053 
L 366.268654 297.656643 
L 367.437878 295.820049 
L 368.347275 294.799131 
L 369.256671 294.105659 
L 370.166068 293.632085 
L 372.504516 294.306562 
L 374.193395 294.481517 
L 377.181412 294.539294 
L 398.487273 294.539294 
L 398.487273 294.539294 
" style="fill:none;stroke:#00bfbf;stroke-linecap:square;stroke-width:1.5;"/>
   </g>
   <g id="patch_18">
    <path d="M 57.6 307.584 
L 57.6 229.315765 
" style="fill:none;stroke:#000000;stroke-linecap:square;stroke-linejoin:miter;stroke-width:0.8;"/>
   </g>
   <g id="patch_19">
    <path d="M 414.72 307.584 
L 414.72 229.315765 
" style="fill:none;stroke:#000000;stroke-linecap:square;stroke-linejoin:miter;stroke-width:0.8;"/>
   </g>
   <g id="patch_20">
    <path d="M 57.6 307.584 
L 414.72 307.584 
" style="fill:none;stroke:#000000;stroke-linecap:square;stroke-linejoin:miter;stroke-width:0.8;"/>
   </g>
   <g id="patch_21">
    <path d="M 57.6 229.315765 
L 414.72 229.315765 
" style="fill:none;stroke:#000000;stroke-linecap:square;stroke-linejoin:miter;stroke-width:0.8;"/>
   </g>
  </g>
 </g>
 <defs>
  <clipPath id="pbb684bf978">
   <rect height="78.268235" width="357.12" x="57.6" y="41.472"/>
  </clipPath>
  <clipPath id="p9aaa2114af">
   <rect height="78.268235" width="357.12" x="57.6" y="135.393882"/>
  </clipPath>
  <clipPath id="paaf95c3829">
   <rect height="78.268235" width="357.12" x="57.6" y="229.315765"/>
  </clipPath>
 </defs>
</svg>
